<?xml version="1.0" encoding="UTF-8" standalone="no"?>
<svg
   xmlns:svg="http://www.w3.org/2000/svg"
   xmlns="http://www.w3.org/2000/svg"
   width="23.619354mm"
   height="11.816292mm"
   viewBox="0 0 23.619354 11.816292"
   version="1.1">
  <g transform="translate(-326.10104,-138.47876)">
    <polygon
       transform="matrix(0.26458333,0,0,0.26458333,320.19289,132.55474)"
       points="22.33,44.72 47.84,44.72 35.08,22.39 "
       style="fill:#2dd5ff" />
    <polygon
       transform="matrix(0.26458333,0,0,0.26458333,320.19289,132.55474)"
       points="47.84,44.72 22.33,44.72 35.08,67.05 "
       style="fill:#1fa2d1" />
    <polygon
       transform="matrix(0.26458333,0,0,0.26458333,320.19289,132.55474)"
       points="66.97,33.56 60.59,22.39 35.08,22.39 47.84,44.72 60.59,44.72 "
       style="fill:#1fa2d1" />
    <polygon
       transform="matrix(0.26458333,0,0,0.26458333,320.19289,132.55474)"
       points="60.59,67.05 66.97,55.88 60.59,44.72 47.84,44.72 35.08,67.05 "
       style="fill:#126fa4" />
    <polygon
       transform="matrix(0.26458333,0,0,0.26458333,320.19289,132.55474)"
       points="77.55,44.72 77.54,44.72 "
       style="fill:#2dd5ff" />
    <polygon
       transform="matrix(0.26458333,0,0,0.26458333,320.19289,132.55474)"
       points="105.22,33.55 66.97,33.55 60.59,44.72 111.6,44.72 "
       style="fill:#2dd5ff" />
    <polygon
       transform="matrix(0.26458333,0,0,0.26458333,320.19289,132.55474)"
       points="71.22,55.88 66.97,55.88 60.59,44.72 77.6,44.72 "
       style="fill:#1fa2d1" />
    <polygon
       transform="matrix(0.26458333,0,0,0.26458333,320.19289,132.55474)"
       points="101.02,55.88 94.65,44.72 111.6,44.72 105.22,55.88 "
       style="fill:#1fa2d1" />
    <polygon
       transform="matrix(0.26458333,0,0,0.26458333,320.19289,132.55474)"
       points="83.97,55.88 77.6,44.72 94.65,44.72 88.27,55.88 "
       style="fill:#1fa2d1" />
    <polygon
       transform="matrix(0.26458333,0,0,0.26458333,320.19289,132.55474)"
       points="101.02,55.88 88.27,55.88 94.65,44.72 "
       style="fill:#126fa4" />
    <polygon
       transform="matrix(0.26458333,0,0,0.26458333,320.19289,132.55474)"
       points="83.97,55.88 71.22,55.88 77.6,44.72 "
       style="fill:#126fa4" />
  </g>
</svg>
